<svg width="40" height="40" viewBox="0 0 40 40" fill="none" xmlns="http://www.w3.org/2000/svg">
<path d="M11.6667 18.3333L18.3334 3.33325C19.6595 3.33325 20.9312 3.86004 21.8689 4.79772C22.8066 5.7354 23.3334 7.00717 23.3334 8.33325V14.9999H32.7667C33.2499 14.9944 33.7285 15.0941 34.1693 15.2919C34.6102 15.4898 35.0027 15.7811 35.3198 16.1458C35.6369 16.5104 35.8709 16.9396 36.0056 17.4037C36.1403 17.8677 36.1726 18.3555 36.1 18.8333L33.8 33.8333C33.6795 34.6281 33.2758 35.3526 32.6632 35.8733C32.0507 36.3939 31.2706 36.6757 30.4667 36.6666H11.6667M11.6667 18.3333V36.6666M11.6667 18.3333H6.66671C5.78265 18.3333 4.93481 18.6844 4.30968 19.3096C3.68456 19.9347 3.33337 20.7825 3.33337 21.6666V33.3333C3.33337 34.2173 3.68456 35.0652 4.30968 35.6903C4.93481 36.3154 5.78265 36.6666 6.66671 36.6666H11.6667" stroke="#1E1E1E" stroke-width="3.5" stroke-linecap="round" stroke-linejoin="round"/>
</svg>
